Coordinates
version=1
nRows=17
nColumns=40
inDegrees=yes

Units are S.I. units (second, meters, Newtons, ...)
Angles are in degrees.

endheader
time	pelvis_tilt	pelvis_list	pelvis_rotation	pelvis_tx	pelvis_ty	pelvis_tz	hip_flexion_r	hip_adduction_r	hip_rotation_r	knee_angle_r	knee_angle_r_beta	ankle_angle_r	subtalar_angle_r	mtp_angle_r	hip_flexion_l	hip_adduction_l	hip_rotation_l	knee_angle_l	knee_angle_l_beta	ankle_angle_l	subtalar_angle_l	mtp_angle_l	lumbar_extension	lumbar_bending	lumbar_rotation	arm_flex_r	arm_add_r	arm_rot_r	elbow_flex_r	pro_sup_r	wrist_flex_r	wrist_dev_r	arm_flex_l	arm_add_l	arm_rot_l	elbow_flex_l	pro_sup_l	wrist_flex_l	wrist_dev_l
     39.24000000	     -6.44540191	     -6.43869481	      0.25168223	      1.03976211	      0.92791074	      0.50629593	     16.98176642	      4.24309293	    -17.04282453	     17.22752244	     17.22752244	      7.73720291	      2.44445338	     -2.53396391	     32.20330206	    -15.03616901	      1.42456683	     67.14532564	     67.14532564	     12.61111756	    -18.54625024	     11.99881894	    -13.37448616	      7.25954182	      5.09294104	     11.44669345	    -16.25035506	     -0.05770137	     36.08360465	     45.25648218	      0.00000000	      0.00000000	      8.85872956	     -7.92003577	     -1.86374065	     51.57124036	     45.64668773	      0.00000000	      0.00000000
     39.25157143	     -6.45557861	     -6.29638792	      0.66854760	      1.03873162	      0.92813013	      0.50611297	     16.42029285	      4.08050284	    -17.16364433	     17.15680852	     17.15680852	      8.21338494	      2.24610709	     -2.69316095	     33.84592115	    -14.61919405	      2.03069759	     65.86779152	     65.86779152	     12.47924424	    -18.52155174	     12.23372537	    -13.42632288	      7.02692382	      4.74921199	     13.86135910	    -16.54344917	     -0.20562130	     37.13023032	     45.25111632	      0.00000000	      0.00000000	      7.39276920	     -8.16191852	     -1.88215241	     49.24664074	     45.63615490	      0.00000000	      0.00000000
     39.26314286	     -6.44425918	     -6.17794515	      1.04994315	      1.03777735	      0.92837601	      0.50597545	     15.77405302	      3.99353237	    -17.18378512	     16.95815954	     16.95815954	      8.64105419	      1.96439478	     -2.81810164	     35.25577342	    -14.22998726	      2.55276778	     64.30037929	     64.30037929	     12.22735359	    -18.48503110	     12.42932483	    -13.46120957	      6.82128909	      4.87781586	     16.11102465	    -17.10512844	      0.13252241	     37.73728223	     45.25625801	      0.00000000	      0.00000000	      6.94295460	     -7.79791444	     -2.89624751	     44.91401027	     45.77093641	      0.00000000	      0.00000000
     39.27471429	     -6.40869838	     -6.08053995	      1.42674274	      1.03687111	      0.92849521	      0.50580860	     15.09399081	      3.93999483	    -17.19982439	     16.73267314	     16.73267314	      9.09244128	      1.69258357	     -2.88376875	     36.46939211	    -13.83306067	      3.04892523	     62.48043926	     62.48043926	     11.92409570	    -18.44988106	     12.67832674	    -13.56308916	      6.64340274	      4.59019358	     18.40607633	    -17.41777466	      0.06188602	     38.98155792	     45.23821390	      0.00000000	      0.00000000	      5.53652101	     -8.00656643	     -3.20828348	     42.78682313	     45.79527967	      0.00000000	      0.00000000
     39.28628571	     -6.36250984	     -5.96747126	      1.79522340	      1.03599105	      0.92854849	      0.50557809	     14.37846330	      3.88165679	    -17.17287248	     16.45708719	     16.45708719	      9.54963754	      1.43106166	     -2.94881478	     37.47458219	    -13.39880585	      3.47526026	     60.35951933	     60.35951933	     11.59124402	    -18.43645831	     12.99979735	    -13.70264932	      6.44957059	      4.42292746	     20.58874043	    -17.73824916	      0.02464299	     40.13138962	     45.21784872	      0.00000000	      0.00000000	      4.27649301	     -8.20143646	     -3.49622320	     40.66102703	     45.81251972	      0.00000000	      0.00000000
     39.29785714	     -6.35466605	     -5.91087519	      2.14411258	      1.03513931	      0.92833136	      0.50527955	     13.69546878	      3.88985729	    -17.14247253	     16.15521784	     16.15521784	     10.01288482	      1.14941165	     -3.04658781	     38.38431428	    -13.00132149	      3.89479229	     58.01853123	     58.01853123	     11.28110388	    -18.35982990	     13.23441120	    -13.74370105	      6.32009518	      4.25624291	     22.78523379	    -18.09158939	      0.14283051	     41.36377824	     45.18869344	      0.00000000	      0.00000000	      3.24197952	     -8.29929630	     -4.00098590	     37.93379566	     45.86041735	      0.00000000	      0.00000000
     39.30942857	     -6.44035222	     -5.91791799	      2.41250456	      1.03424995	      0.92778084	      0.50498704	     13.20912339	      3.92769488	    -17.17281906	     16.04082159	     16.04082159	     10.51739023	      0.99098183	     -3.20484657	     39.25760942	    -12.74224350	      4.16403202	     55.45145004	     55.45145004	     11.06576349	    -18.00332201	     13.55969125	    -13.68970661	      6.22895990	      4.85077442	     24.54160533	    -18.94049824	     -0.02606809	     42.08160166	     45.18369434	      0.00000000	      0.00000000	      2.06364359	     -8.37227587	     -4.13092975	     36.99337530	     45.86015194	      0.00000000	      0.00000000
     39.32100000	     -6.40203537	     -5.87441332	      2.73457696	      1.03355414	      0.92744555	      0.50452114	     12.38565238	      4.00518669	    -16.97936082	     15.52249191	     15.52249191	     10.84877440	      0.56663328	     -3.52015882	     39.71867863	    -12.33554093	      4.46993735	     52.43213548	     52.43213548	     10.28928444	    -17.94632673	     12.60295603	    -13.72624082	      6.14851291	      4.68386744	     26.25546096	    -19.52412062	      1.30666408	     44.67605306	     45.06528423	      0.00000000	      0.00000000	      2.36666634	     -8.05867765	     -6.29902246	     31.09125624	     46.17848444	      0.00000000	      0.00000000
     39.33257143	     -6.44665813	     -5.85783439	      2.97975491	      1.03285810	      0.92683248	      0.50403556	     11.74213219	      4.05031338	    -16.93336439	     15.21073092	     15.21073092	     11.33211413	      0.46368928	     -3.63964897	     40.15904832	    -11.98254422	      4.70901099	     49.30861484	     49.30861484	     10.09868045	    -17.50309246	     12.90266899	    -13.71110159	      6.02527110	      4.73952425	     28.16613055	    -19.85662334	      1.12523491	     45.99798359	     45.04085547	      0.00000000	      0.00000000	      0.98414221	     -8.32225282	     -6.54801183	     30.21286680	     46.19599764	      0.00000000	      0.00000000
     39.34414286	     -6.45070807	     -5.97274770	      3.28037152	      1.03231564	      0.92609431	      0.50337127	     11.00298707	      4.25101371	    -16.88173150	     14.78803586	     14.78803586	     11.66068622	      0.21270807	     -4.05839006	     40.37896996	    -11.75344487	      4.93253080	     45.87307061	     45.87307061	      9.21756188	    -16.99578296	     11.19532728	    -13.73066173	      6.12778437	      4.70419038	     29.36346099	    -20.57818046	      1.88607334	     49.78092738	     44.91901388	      0.00000000	      0.00000000	      0.09872343	     -8.30740836	     -8.42528317	     28.05621809	     46.48907803	      0.00000000	      0.00000000
     39.35571429	     -6.60769101	     -6.19615681	      3.52681994	      1.03176468	      0.92495765	      0.50268109	     10.59257883	      4.48809891	    -16.95545867	     14.69577162	     14.69577162	     12.16222007	      0.12244368	     -4.24400419	     40.77399348	    -11.60272850	      5.21147238	     42.58968449	     42.58968449	      9.21762625	    -16.02726834	     11.58061378	    -13.46155421	      6.30172024	      5.16651875	     31.05562586	    -21.21480400	      1.61079038	     50.56917221	     44.91405553	      0.00000000	      0.00000000	     -1.10511045	     -8.51545377	     -8.52426600	     27.48438803	     46.48574946	      0.00000000	      0.00000000
     39.36728571	     -6.54056020	     -6.20237042	      3.82286452	      1.03161244	      0.92444023	      0.50176401	      9.57676609	      4.60942443	    -16.92974361	     13.96514794	     13.96514794	     12.50580481	      0.14270210	     -4.30824669	     40.58429978	    -11.28015167	      5.18816267	     38.98917028	     38.98917028	      8.96551121	    -14.92830323	     11.43150358	    -13.56099358	      6.26846845	      4.26637564	     33.02861274	    -20.63664361	      1.59626377	     53.53043439	     44.83110586	      0.00000000	      0.00000000	     -2.68863549	     -8.82301422	     -8.80106237	     26.14950367	     46.51094008	      0.00000000	      0.00000000
     39.37885714	     -6.53260252	     -6.34462263	      4.09126240	      1.03161408	      0.92363007	      0.50072551	      8.74482494	      4.81925669	    -16.97086868	     13.46484141	     13.46484141	     12.86289696	      0.21950537	     -4.50530758	     40.39927663	    -11.11076133	      5.07584326	     35.51246723	     35.51246723	      8.78979135	    -13.55639691	     11.13499429	    -13.48407096	      6.38846901	      4.10310786	     34.43570065	    -20.77009072	      1.61507995	     56.40565760	     44.75183147	      0.00000000	      0.00000000	     -3.96008867	     -9.01192671	     -9.12301948	     25.28576731	     46.54985897	      0.00000000	      0.00000000
     39.39042857	     -6.51229623	     -6.45053704	      4.32792117	      1.03183159	      0.92287313	      0.49959498	      7.89958706	      4.97704653	    -17.03435723	     13.01756850	     13.01756850	     13.23272573	      0.32817722	     -4.65671694	     40.09374337	    -10.92390815	      4.79961722	     32.17866029	     32.17866029	      8.66279339	    -12.11256470	     11.28854710	    -13.40236114	      6.43753972	      4.03620649	     35.82166953	    -20.86387808	      1.50392847	     58.70983922	     44.69301069	      0.00000000	      0.00000000	     -5.21897350	     -9.20988067	     -9.29787866	     24.64094416	     46.56183786	      0.00000000	      0.00000000
     39.40200000	     -6.52040481	     -6.56477042	      4.57439453	      1.03228071	      0.92205876	      0.49829603	      7.03039180	      5.14568240	    -17.13103235	     12.48698549	     12.48698549	     13.56802364	      0.52772295	     -4.76275119	     39.73902633	    -10.73304149	      4.35410025	     29.08123044	     29.08123044	      8.54962621	    -10.67547749	     11.60355485	    -13.22259252	      6.51852760	      3.89560278	     37.16650701	    -20.80159465	      1.36904288	     61.04479338	     44.63211075	      0.00000000	      0.00000000	     -6.46457660	     -9.35848458	     -9.41179627	     24.12361041	     46.56206768	      0.00000000	      0.00000000
     39.41357143	     -6.52192292	     -6.70523890	      4.83404904	      1.03296557	      0.92120151	      0.49680141	      6.10203438	      5.34066412	    -17.28062961	     11.88848848	     11.88848848	     13.89381921	      0.81421181	     -4.84351017	     39.34864467	    -10.54135300	      3.81542930	     26.35250854	     26.35250854	      8.43612162	     -9.33709503	     11.97792195	    -13.03540331	      6.65185082	      3.70357746	     38.42779165	    -20.61204868	      1.21867905	     63.53302357	     44.56602384	      0.00000000	      0.00000000	     -7.66693714	     -9.42170111	     -9.49136856	     23.74590693	     46.55530024	      0.00000000	      0.00000000
     39.42514286	     -6.48603172	     -6.93358639	      5.08418582	      1.03399009	      0.92028103	      0.49514779	      5.03793366	      5.62729897	    -17.68169243	     11.13326441	     11.13326441	     14.12889933	      1.51985034	     -4.98224247	     38.98549624	    -10.45615602	      3.10504346	     24.18786049	     24.18786049	      8.30894595	     -8.03643120	     12.05579867	    -12.97346481	      6.89922752	      4.11551381	     38.37802050	    -21.26662149	      0.62952536	     69.21891835	     44.44003452	      0.00000000	      0.00000000	     -8.83708235	     -9.48025013	     -9.63585016	     24.30207108	     46.55422407	      0.00000000	      0.00000000
